<?xml version="1.0" encoding="UTF-8" standalone="no"?>
<svg
   xmlns:dc="http://purl.org/dc/elements/1.1/"
   xmlns:cc="http://creativecommons.org/ns#"
   xmlns:rdf="http://www.w3.org/1999/02/22-rdf-syntax-ns#"
   xmlns:svg="http://www.w3.org/2000/svg"
   xmlns="http://www.w3.org/2000/svg"
   viewBox="0 0 595.27557 841.88977"
   id="svg2"
   height="841.88977"
   width="595.27557"
   version="1.1">
  <metadata
     id="metadata18">
    <rdf:RDF>
      <cc:Work
         rdf:about="">
        <dc:format>image/svg+xml</dc:format>
        <dc:type
           rdf:resource="http://purl.org/dc/dcmitype/StillImage" />
      </cc:Work>
    </rdf:RDF>
  </metadata>
  <defs
     id="defs16" />
  <path
     id="path4"
     style="fill:#013f88;fill-rule:evenodd"
     d="m 230.4975,339.1291 c 3.9195,9.8312 7.1218,20.5338 11.0411,30.3651 0.1448,0.3634 1.0072,-0.1435 1.1523,0.2204 0,-8.9485 0,-17.897 0,-26.8455 2.3083,-13.9303 11.7637,-20.1757 21.7224,-20.7624 7.5274,-0.4436 18.7092,1.7601 26.4355,7.6469 0,-0.9734 0,-1.9468 0,-2.9202 -8.0692,-5.0396 -16.0104,-7.4557 -24.0792,-7.485 -12.0478,-0.0437 -26.3247,5.4994 -36.2721,19.7807 z" />
  <path
     id="path6"
     style="fill:#013f88;fill-rule:evenodd"
     d="m 271.6361,374.5565 c 0,-0.7515 0,-1.5028 0,-2.2543 11.5614,0 23.1227,0 34.6841,0 1.5539,0.0639 1.5971,1.6792 1.0725,2.4613 -0.535,0.7972 -3.1837,0.2144 -4.0672,0.123 -1.8713,-0.1937 -3.7189,-0.3528 -5.0488,0.2335 0,6.6088 0,13.2179 0,19.8267 -10.9202,10.8391 -24.2026,15.7558 -39.3227,13.0762 -1.7831,-0.3159 -3.5223,-0.8586 -4.3933,-2.0469 -1.0259,-1.4 -1.6329,-3.4556 1.6536,-2.1871 3.1676,1.2226 6.6906,1.9191 10.0698,2.0244 6.2359,0.1946 11.9843,-1.6211 14.1127,-5.8459 0,-8.4702 0,-16.9407 0,-25.4109 -2.8913,0.5468 -5.8012,0.7523 -8.7607,0 z" />
  <path
     id="path8"
     style="fill:#013f88;fill-rule:evenodd"
     d="m 304.7365,322.012 14.14,0 0.0906,38.8491 17.901,47.1987 0.8497,0.1395 -0.0906,-86.1873 c 3.4838,0 6.9674,0 10.4512,0 9.7707,2.6011 13.933,8.5676 14.1402,16.9066 l 2.5616,0 0,-19.5706 -60.0437,0 0,2.664 z" />
  <path
     id="path10"
     style="fill:#a7a9ac;fill-rule:evenodd"
     d="m 298.7378,319.348 0,18.5978 1.7545,0 0,-18.5978 -1.7545,0 z" />
  <path
     id="path12"
     style="fill:#a7a9ac;fill-rule:evenodd"
     d="m 121.3295,496.054 0,3.1767 352.6192,0 0,-3.1767 -352.6192,0 z" />
</svg>
