<svg xmlns="http://www.w3.org/2000/svg" xmlns:xlink="http://www.w3.org/1999/xlink" width="1660" height="867" viewBox="0 0 1660 867"><defs><clipPath id="b"><rect width="1660" height="867"/></clipPath></defs><g id="a" clip-path="url(#b)"><path d="M121.329,496.054v13.26H1591.738v-13.26Z" transform="translate(-26.329 248.565)" fill="#a9abae" fill-rule="evenodd"/><path d="M298.738,319.348V396.98h7.316V319.348Z" transform="translate(536.048 -312.348)" fill="#a9abae" fill-rule="evenodd"/><path d="M53.078-4.976H31.361v-1.5h2.044a20.655,20.655,0,0,0,3.857-.231q2.314-.54,2.314-2.469a10.984,10.984,0,0,0-.849-3.24l-5.323-14.35H17.05L12.5-14.388a29.417,29.417,0,0,0-1.582,4.976q0,2.932,6.4,2.932h1.234v1.5H.309v-1.5Q5.13-6.635,6.558-9.065a36.011,36.011,0,0,0,2.276-5.246L23.222-53.58l-.694-1.736h6.866L45.9-11.457q1.466,3.857,3.857,4.59a11.486,11.486,0,0,0,3.317.386ZM32.055-30.242,25.112-48.681,18.4-30.242ZM105.985-17.2a11.916,11.916,0,0,1-5.053,10.029A17.761,17.761,0,0,1,89.9-3.7a33.961,33.961,0,0,1-8.216-1.5,19.879,19.879,0,0,0-2.777-.656,1.8,1.8,0,0,0-1.582.887h-1.35l-1.659-12h1.5a14.7,14.7,0,0,0,4.706,7.946,12.8,12.8,0,0,0,8.641,3.163,12.1,12.1,0,0,0,7.561-2.353,8.378,8.378,0,0,0,3.356-6.943q0-4.012-4.552-7.908a87.317,87.317,0,0,0-7.908-5.4,54.532,54.532,0,0,1-8.563-6.249Q74.7-39,74.7-43.859q0-6.75,6.9-9.952a16.667,16.667,0,0,1,7.175-1.5,24.75,24.75,0,0,1,7.985,1.389,9.428,9.428,0,0,0,2.739.617,1.709,1.709,0,0,0,1.427-.81H102.2l1.35,10.029H102.2a14.6,14.6,0,0,0-4.938-6.635,12.592,12.592,0,0,0-7.792-2.662,9.976,9.976,0,0,0-6.133,1.813,6.571,6.571,0,0,0-2.7,5.593q0,3.935,4.475,7.676,1.389,1.157,7.831,5.169a52.775,52.775,0,0,1,8.718,6.442Q105.985-22.3,105.985-17.2Zm56.109,0A11.916,11.916,0,0,1,157.04-7.175,17.761,17.761,0,0,1,146.008-3.7a33.961,33.961,0,0,1-8.216-1.5,19.88,19.88,0,0,0-2.777-.656,1.8,1.8,0,0,0-1.582.887h-1.35l-1.659-12h1.5a14.7,14.7,0,0,0,4.706,7.946,12.8,12.8,0,0,0,8.641,3.163,12.1,12.1,0,0,0,7.561-2.353,8.378,8.378,0,0,0,3.356-6.943q0-4.012-4.552-7.908a87.316,87.316,0,0,0-7.908-5.4,54.532,54.532,0,0,1-8.563-6.249Q130.81-39,130.81-43.859q0-6.75,6.9-9.952a16.667,16.667,0,0,1,7.175-1.5,24.75,24.75,0,0,1,7.985,1.389,9.428,9.428,0,0,0,2.739.617,1.709,1.709,0,0,0,1.427-.81h1.273l1.35,10.029h-1.35a14.6,14.6,0,0,0-4.937-6.635,12.592,12.592,0,0,0-7.792-2.662,9.976,9.976,0,0,0-6.133,1.813,6.571,6.571,0,0,0-2.7,5.593q0,3.935,4.475,7.676,1.389,1.157,7.831,5.169a52.775,52.775,0,0,1,8.718,6.442Q162.093-22.3,162.093-17.2Zm81.8-13.694a25.608,25.608,0,0,1-8.2,19.48A28.005,28.005,0,0,1,215.772-3.7,33.068,33.068,0,0,1,201.924-6.6a25.912,25.912,0,0,1-10.8-8.988,22.19,22.19,0,0,1-3.857-12.845,26.642,26.642,0,0,1,3.645-13.81,25.078,25.078,0,0,1,10.4-9.644,31.683,31.683,0,0,1,14.851-3.433,29.087,29.087,0,0,1,19.6,6.982A22.037,22.037,0,0,1,243.892-30.9Zm-7.445,2.623q0-10.994-6.249-18.014a20.552,20.552,0,0,0-16.085-7.021,17.15,17.15,0,0,0-14.774,7.445A25.167,25.167,0,0,0,194.672-30.9a28.271,28.271,0,0,0,2.777,12.537,22.122,22.122,0,0,0,8.486,9.451,21.456,21.456,0,0,0,11.5,3.24q12.112,0,16.9-11.611A28.858,28.858,0,0,0,236.448-28.275ZM320.06-17.4a54.3,54.3,0,0,1-3.125,7.985q-1.119,2.2-1.929,3.549a11.442,11.442,0,0,0-1.62-.116,11.215,11.215,0,0,0-1.312.077q-3.2.694-9.6,1.852a37.77,37.77,0,0,1-5.323.347,31.166,31.166,0,0,1-13.694-2.97,24.312,24.312,0,0,1-10.338-9.3,24.3,24.3,0,0,1-3.549-12.961,25.854,25.854,0,0,1,3.607-13.52A24.992,24.992,0,0,1,283.337-51.9a31.179,31.179,0,0,1,14.62-3.414,39.889,39.889,0,0,1,13.038,2.2,14.921,14.921,0,0,0,3.626.964q1.119,0,1.427-.463h1.157l.733,11.457h-1.5a17.543,17.543,0,0,0-10.145-10.685,20.99,20.99,0,0,0-7.869-1.466q-13.27,0-18.786,10.955a25.813,25.813,0,0,0-2.623,11.842,25.188,25.188,0,0,0,6.635,17.706A20.477,20.477,0,0,0,299.307-5.67q12.729,0,19.249-11.727ZM363.207-4.976H344v-1.5q3.7-.154,4.86-1.62,1.08-1.35,1.08-5.169V-46.906q0-3.2-1.389-4.436-1.234-1.08-4.552-1.273v-1.5h19.21v1.5q-4.976,0-6.056,2.392a9.69,9.69,0,0,0-.656,4.012v33.482q0,4.667,2.584,5.67a11.642,11.642,0,0,0,4.127.579Zm74.007,0H415.5v-1.5h2.044a20.655,20.655,0,0,0,3.857-.231q2.314-.54,2.314-2.469a10.984,10.984,0,0,0-.849-3.24l-5.323-14.35H401.186l-4.552,12.382a29.418,29.418,0,0,0-1.582,4.976q0,2.932,6.4,2.932h1.234v1.5H384.445v-1.5q4.822-.154,6.249-2.584a36.01,36.01,0,0,0,2.276-5.246L407.358-53.58l-.694-1.736h6.866l16.51,43.859q1.466,3.857,3.857,4.59a11.486,11.486,0,0,0,3.317.386ZM416.191-30.242l-6.943-18.438-6.712,18.438Zm94.49-.964a24.542,24.542,0,0,1-3.587,12.922,27.074,27.074,0,0,1-9.6,9.374,31.055,31.055,0,0,1-16.047,3.935H456.176v-1.5h1.35q4.4,0,5.555-2.276a7.656,7.656,0,0,0,.656-3.472V-46.212q0-4.9-2.314-5.863a9.922,9.922,0,0,0-3.665-.54h-1.582v-1.5q3.9-.193,11.109-.463,6.365-.231,13.308-.231,14.967,0,22.8,6.789Q510.681-41.66,510.681-31.207Zm-7.445,1.273q0-10.646-6.365-17.011T476.62-53.31q-2.469,0-6.326.309v42.162q0,3.356,2.044,3.935a16.114,16.114,0,0,0,4.436.424q10.145,0,14.89-2.546A21.88,21.88,0,0,0,501.307-19.9,24.917,24.917,0,0,0,503.236-29.934Zm89.977-.964a25.608,25.608,0,0,1-8.2,19.48A28.005,28.005,0,0,1,565.092-3.7,33.068,33.068,0,0,1,551.244-6.6a25.912,25.912,0,0,1-10.8-8.988,22.19,22.19,0,0,1-3.857-12.845,26.642,26.642,0,0,1,3.645-13.81,25.078,25.078,0,0,1,10.4-9.644,31.683,31.683,0,0,1,14.851-3.433,29.087,29.087,0,0,1,19.6,6.982A22.037,22.037,0,0,1,593.213-30.9Zm-7.445,2.623q0-10.994-6.249-18.014a20.552,20.552,0,0,0-16.085-7.021,17.15,17.15,0,0,0-14.774,7.445A25.167,25.167,0,0,0,543.992-30.9a28.271,28.271,0,0,0,2.777,12.537,22.122,22.122,0,0,0,8.486,9.451,21.456,21.456,0,0,0,11.5,3.24q12.112,0,16.9-11.611A28.858,28.858,0,0,0,585.768-28.275ZM649.939-17.2a11.916,11.916,0,0,1-5.053,10.029A17.761,17.761,0,0,1,633.853-3.7a33.961,33.961,0,0,1-8.216-1.5,19.881,19.881,0,0,0-2.777-.656,1.8,1.8,0,0,0-1.582.887h-1.35l-1.659-12h1.5a14.7,14.7,0,0,0,4.706,7.946,12.8,12.8,0,0,0,8.641,3.163,12.1,12.1,0,0,0,7.561-2.353,8.378,8.378,0,0,0,3.356-6.943q0-4.012-4.552-7.908a87.314,87.314,0,0,0-7.908-5.4,54.532,54.532,0,0,1-8.563-6.249q-4.359-4.282-4.359-9.142,0-6.75,6.9-9.952a16.667,16.667,0,0,1,7.175-1.5,24.75,24.75,0,0,1,7.985,1.389,9.428,9.428,0,0,0,2.739.617,1.709,1.709,0,0,0,1.427-.81h1.273l1.35,10.029h-1.35a14.6,14.6,0,0,0-4.937-6.635,12.592,12.592,0,0,0-7.792-2.662,9.976,9.976,0,0,0-6.133,1.813,6.571,6.571,0,0,0-2.7,5.593q0,3.935,4.475,7.676,1.389,1.157,7.831,5.169a52.774,52.774,0,0,1,8.718,6.442Q649.939-22.3,649.939-17.2Z" transform="translate(858 857)" fill="#373435"/><path d="M53.078-4.976H31.361v-1.5h2.044a20.655,20.655,0,0,0,3.857-.231q2.314-.54,2.314-2.469a10.984,10.984,0,0,0-.849-3.24l-5.323-14.35H17.05L12.5-14.388a29.417,29.417,0,0,0-1.582,4.976q0,2.932,6.4,2.932h1.234v1.5H.309v-1.5Q5.13-6.635,6.558-9.065a36.011,36.011,0,0,0,2.276-5.246L23.222-53.58l-.694-1.736h6.866L45.9-11.457q1.466,3.857,3.857,4.59a11.486,11.486,0,0,0,3.317.386ZM32.055-30.242,25.112-48.681,18.4-30.242Zm94.806-.964a24.542,24.542,0,0,1-3.587,12.922,27.074,27.074,0,0,1-9.6,9.374A31.055,31.055,0,0,1,97.622-4.976H72.356v-1.5h1.35q4.4,0,5.555-2.276a7.656,7.656,0,0,0,.656-3.472V-46.212q0-4.9-2.314-5.863a9.922,9.922,0,0,0-3.665-.54H72.356v-1.5q3.9-.193,11.109-.463,6.365-.231,13.308-.231,14.967,0,22.8,6.789Q126.861-41.66,126.861-31.207Zm-7.445,1.273q0-10.646-6.365-17.011T92.8-53.31q-2.469,0-6.326.309v42.162q0,3.356,2.044,3.935a16.114,16.114,0,0,0,4.436.424q10.145,0,14.89-2.546A21.88,21.88,0,0,0,117.488-19.9,24.917,24.917,0,0,0,119.416-29.934Zm83.041-22.682a7.343,7.343,0,0,0-5.246,1.852,13.469,13.469,0,0,0-2.893,4.938L178.039-3.7h-3.973l-17.127-42.74q-.964-2.353-1.466-3.279a5.4,5.4,0,0,0-2.507-2.392,10.858,10.858,0,0,0-3.78-.5v-1.5H170.9v1.5q-6.9.077-7.792,2.392a4.135,4.135,0,0,0,.309,3.047l14.2,35.411,12.5-32.634a16.621,16.621,0,0,0,1.35-4.9q0-3.317-7.368-3.317v-1.5h18.361Zm79.3,21.717a25.608,25.608,0,0,1-8.2,19.48A28.005,28.005,0,0,1,253.635-3.7,33.068,33.068,0,0,1,239.787-6.6a25.912,25.912,0,0,1-10.8-8.988,22.19,22.19,0,0,1-3.857-12.845,26.642,26.642,0,0,1,3.645-13.81,25.078,25.078,0,0,1,10.4-9.644,31.683,31.683,0,0,1,14.851-3.433,29.087,29.087,0,0,1,19.6,6.982A22.037,22.037,0,0,1,281.756-30.9Zm-7.445,2.623q0-10.994-6.249-18.014a20.552,20.552,0,0,0-16.085-7.021A17.15,17.15,0,0,0,237.2-45.865,25.167,25.167,0,0,0,232.535-30.9a28.271,28.271,0,0,0,2.777,12.537A22.122,22.122,0,0,0,243.8-8.911a21.456,21.456,0,0,0,11.5,3.24q12.112,0,16.9-11.611A28.857,28.857,0,0,0,274.311-28.275Zm85.9,3.626q-5.516.347-5.516,4.976V-8.679A45.193,45.193,0,0,1,333.513-3.7a26.673,26.673,0,0,1-13.192-3.24,22.337,22.337,0,0,1-9.3-9.836,26.09,26.09,0,0,1-2.854-11.8A26.873,26.873,0,0,1,314.882-46.6q7.445-8.718,20.83-8.718a49.994,49.994,0,0,1,13.578,2.16,16.181,16.181,0,0,0,2.16.54,2.772,2.772,0,0,0,1.813-.54h1.119v12.768H352.8Q350.023-53.31,336.6-53.31q-9.914,0-15.661,7.252-5.362,6.789-5.362,16.973,0,11.187,6.712,17.59A19.338,19.338,0,0,0,336.059-5.67a26.94,26.94,0,0,0,12.074-3.009v-9.952q0-3.472-1.408-4.745t-4.918-1.273h-2.932v-1.427h21.332Zm72.7,19.673H411.192v-1.5h2.044a20.655,20.655,0,0,0,3.857-.231q2.314-.54,2.314-2.469a10.984,10.984,0,0,0-.849-3.24l-5.323-14.35H396.881l-4.552,12.382a29.418,29.418,0,0,0-1.582,4.976q0,2.932,6.4,2.932h1.234v1.5H380.14v-1.5q4.822-.154,6.249-2.584a36.01,36.01,0,0,0,2.276-5.246L403.053-53.58l-.694-1.736h6.866l16.51,43.859q1.466,3.857,3.857,4.59a11.486,11.486,0,0,0,3.317.386ZM411.886-30.242l-6.943-18.438-6.712,18.438Zm94.806-.964A24.542,24.542,0,0,1,503.1-18.284a27.074,27.074,0,0,1-9.6,9.374,31.055,31.055,0,0,1-16.047,3.935H452.187v-1.5h1.35q4.4,0,5.555-2.276a7.656,7.656,0,0,0,.656-3.472V-46.212q0-4.9-2.314-5.863a9.922,9.922,0,0,0-3.665-.54h-1.582v-1.5q3.9-.193,11.109-.463,6.365-.231,13.308-.231,14.967,0,22.8,6.789Q506.692-41.66,506.692-31.207Zm-7.445,1.273q0-10.646-6.365-17.011T472.631-53.31q-2.469,0-6.326.309v42.162q0,3.356,2.044,3.935a16.114,16.114,0,0,0,4.436.424q10.145,0,14.89-2.546A21.88,21.88,0,0,0,497.319-19.9,24.917,24.917,0,0,0,499.247-29.934ZM589.54-30.9a25.608,25.608,0,0,1-8.2,19.48A28.005,28.005,0,0,1,561.419-3.7,33.068,33.068,0,0,1,547.571-6.6a25.912,25.912,0,0,1-10.8-8.988,22.19,22.19,0,0,1-3.857-12.845,26.642,26.642,0,0,1,3.645-13.81,25.078,25.078,0,0,1,10.4-9.644,31.683,31.683,0,0,1,14.851-3.433,29.087,29.087,0,0,1,19.6,6.982A22.037,22.037,0,0,1,589.54-30.9ZM582.1-28.275q0-10.994-6.249-18.014a20.552,20.552,0,0,0-16.085-7.021,17.15,17.15,0,0,0-14.774,7.445A25.167,25.167,0,0,0,540.319-30.9,28.271,28.271,0,0,0,543.1-18.361a22.122,22.122,0,0,0,8.486,9.451,21.456,21.456,0,0,0,11.5,3.24q12.112,0,16.9-11.611A28.858,28.858,0,0,0,582.1-28.275ZM646.582-17.2a11.916,11.916,0,0,1-5.053,10.029A17.761,17.761,0,0,1,630.5-3.7a33.961,33.961,0,0,1-8.216-1.5,19.881,19.881,0,0,0-2.777-.656,1.8,1.8,0,0,0-1.582.887h-1.35l-1.659-12h1.5a14.7,14.7,0,0,0,4.706,7.946,12.8,12.8,0,0,0,8.641,3.163,12.1,12.1,0,0,0,7.561-2.353,8.378,8.378,0,0,0,3.356-6.943q0-4.012-4.552-7.908a87.314,87.314,0,0,0-7.908-5.4,54.532,54.532,0,0,1-8.563-6.249Q615.3-39,615.3-43.859q0-6.75,6.9-9.952a16.667,16.667,0,0,1,7.175-1.5,24.75,24.75,0,0,1,7.985,1.389,9.428,9.428,0,0,0,2.739.617,1.709,1.709,0,0,0,1.427-.81H642.8l1.35,10.029H642.8a14.6,14.6,0,0,0-4.937-6.635,12.592,12.592,0,0,0-7.792-2.662,9.976,9.976,0,0,0-6.133,1.813,6.571,6.571,0,0,0-2.7,5.593q0,3.935,4.475,7.676,1.389,1.157,7.831,5.169a52.774,52.774,0,0,1,8.718,6.442Q646.582-22.3,646.582-17.2Z" transform="translate(152 857)" fill="#373435"/><path d="M141.017-61.466q-13.755.866-13.755,12.409v27.415Q103.406-9.234,74.452-9.234q-18.373,0-32.9-8.08A55.7,55.7,0,0,1,18.373-41.843a65.06,65.06,0,0,1-7.118-29.435A67.013,67.013,0,0,1,27.992-116.2q18.565-21.739,51.943-21.739,15.006,0,33.859,5.387a40.352,40.352,0,0,0,5.387,1.347,6.912,6.912,0,0,0,4.521-1.347h2.79v31.839h-3.944q-6.926-32.224-40.4-32.224-24.721,0-39.054,18.084Q29.723-97.923,29.723-72.528q0,27.9,16.737,43.863Q61.563-14.14,80.8-14.14a67.181,67.181,0,0,0,30.108-7.5V-46.46q0-8.657-3.511-11.832T95.133-61.466H87.823v-3.559h53.194ZM243.749-18.084,217.3-10V-25.779Q195.365-10,183.822-10a20.868,20.868,0,0,1-14.813-5.675,18.907,18.907,0,0,1-6.06-14.429V-73.875q0-6.637-5.291-8.08l-6.926-1.924v-2.982l25.395-5.483v55.118q0,7.984,4.906,12.842t12.89,4.858q10.292,0,23.375-10.773v-42.42q0-5.387-1.058-7.214-1.347-2.309-6.156-3.174l-9.908-1.828V-87.63l30.4-4.713v66.372q0,5.194,3.463,5.579a17.6,17.6,0,0,0,5.579-.481l4.136-.77Zm38.38-112.352a6.611,6.611,0,0,1-2.6,5.435,9.443,9.443,0,0,1-6.06,2.068,9.043,9.043,0,0,1-5.868-2.116,6.649,6.649,0,0,1-2.6-5.387,6.649,6.649,0,0,1,2.6-5.387,9.043,9.043,0,0,1,5.868-2.116,9.443,9.443,0,0,1,6.06,2.068A6.611,6.611,0,0,1,282.129-130.436ZM295.789-12.409H252.021V-16.16q8.465,0,12.216-2.886,4.136-3.271,4.136-11.447V-70.124q0-7.118-2.212-8.369a15.857,15.857,0,0,0-3.944-1.25l-9.234-1.828v-3.174l25.587-8.85h2.982v66.18q0,11.254,14.236,11.254Zm159.678,0H411.122V-16.16h1.828q7.214,0,10-2.79,3.174-3.174,3.174-27.9V-62.236q0-22.509-14.813-22.509-9.427,0-26.164,11.062v45.306q0,7.311,2.453,9.763t9.763,2.453v3.751h-40.4V-16.16q10.87,0,13.563-6.349a22.762,22.762,0,0,0,1.443-8.85v-36.36q0-7.311-3.559-11.928-3.944-5.1-11.062-5.1-9.042,0-26.356,11.447v44.921q0,9.715,5.1,11.254a28.6,28.6,0,0,0,8.657.962v3.751H303.772V-16.16q8.08,0,11.158-3.655,2.79-3.271,2.79-11.543V-69.931a21.4,21.4,0,0,0-.673-6.637q-1.058-2.79-5-3.367l-7.7-1.058V-84.36l23.663-8.272h2.982v15.775q22.413-15.775,35.014-15.775A18.2,18.2,0,0,1,378.273-88.3a19.737,19.737,0,0,1,6.493,11.447q8.08-5.194,12.12-7.407a89.742,89.742,0,0,1,12.89-6.252,27.658,27.658,0,0,1,9.812-2.116q19.719,0,19.719,29.819,0,22.124-.577,37.8-.289,8.85,10.389,8.85h6.349Zm77.049-8.465Q519.145-10,512.989-10q-8.272,0-9.042-12.024Q489.229-10,481.053-10q-7.984,0-12.89-4.04-5.387-4.329-5.387-12.12,0-10.389,10.773-15.294,3.655-1.635,15.1-5.291A72.323,72.323,0,0,0,503.562-53V-68.584q0-8.657-3.367-12.6-4.81-5.675-11.062-5.675a14.04,14.04,0,0,0-7.984,2.693q-4.232,3.078-4.232,6.926a9.778,9.778,0,0,0,.962,3.751l-13.371,6.541a11.14,11.14,0,0,1-.577-2.79q0-4.329,6.252-10.677a54.723,54.723,0,0,1,10.1-8.08q6.83-4.136,12.793-4.136,13.178,0,20.681,10.485,2.982,4.136,2.982,16.93v26.453q0,16.737,2.116,18.373a4.358,4.358,0,0,0,2.982.866q4.521,0,9.619-4.329Zm-28.954-4.713V-49.058a100.135,100.135,0,0,1-11.639,5.483q-9.042,3.751-11.062,5.1a11.494,11.494,0,0,0-5.483,9.908,11.245,11.245,0,0,0,3.367,8.272,11.245,11.245,0,0,0,8.272,3.367Q491.25-16.93,503.562-25.587ZM601.2-86.668l-4.713,11.832a40.229,40.229,0,0,1-10.389-3.174,18.336,18.336,0,0,0-6.926-1.924q-4.04,0-7.7,5.1a72.938,72.938,0,0,0-6.252,9.812v38.188q0,6.445,3.271,8.753,2.693,1.924,9.523,1.924h7.5v3.751H538.768V-16.16q7.5-.1,10.485-3.751,2.693-3.271,2.693-11.062v-45.5l-13.178-4.713v-3.367l22.509-7.792h3.944l.385,20.874q5.579-9.138,5.964-9.715,4.425-6.733,7.118-8.657a9.827,9.827,0,0,1,5.579-1.539A19.786,19.786,0,0,1,591-89.65Zm74.933,65.795Q662.759-10,656.6-10q-8.272,0-9.042-12.024Q632.843-10,624.667-10q-7.984,0-12.89-4.04-5.387-4.329-5.387-12.12,0-10.389,10.773-15.294,3.655-1.635,15.1-5.291A72.323,72.323,0,0,0,647.176-53V-68.584q0-8.657-3.367-12.6-4.81-5.675-11.062-5.675a14.04,14.04,0,0,0-7.984,2.693q-4.232,3.078-4.232,6.926a9.777,9.777,0,0,0,.962,3.751l-13.371,6.541a11.14,11.14,0,0,1-.577-2.79q0-4.329,6.252-10.677a54.723,54.723,0,0,1,10.1-8.08q6.83-4.136,12.793-4.136,13.178,0,20.681,10.485,2.982,4.136,2.982,16.93v26.453q0,16.737,2.116,18.373a4.358,4.358,0,0,0,2.982.866q4.521,0,9.619-4.329Zm-28.954-4.713V-49.058a100.132,100.132,0,0,1-11.639,5.483q-9.042,3.751-11.062,5.1a11.494,11.494,0,0,0-5.483,9.908,11.246,11.246,0,0,0,3.367,8.272,11.245,11.245,0,0,0,8.272,3.367Q634.863-16.93,647.176-25.587ZM757.219-62.428H699.7a76.741,76.741,0,0,0-.77,8.272q0,20.2,15.294,29.819a26.875,26.875,0,0,0,14.717,4.425q14.14,0,25.01-12.793l2.116,2.4Q740-10,721.051-10q-20.008,0-29.723-19.912A45.168,45.168,0,0,1,686.71-50.4q0-23.567,17.892-36.168a34.057,34.057,0,0,1,20.2-6.06q16.641,0,23.182,9.427a124.285,124.285,0,0,0,9.234,16.256Zm-16.545-5.1Q738.654-80.512,730-86.187a16.092,16.092,0,0,0-8.753-2.693q-15.583,0-20.874,21.354Zm76.087,35.014A20.6,20.6,0,0,1,809.595-16.3,25.253,25.253,0,0,1,792.329-10a25.024,25.024,0,0,1-8.657-1.443,35.086,35.086,0,0,0-5.291-1.154q-1.924,0-3.367,2.4h-2.982L769.916-32.32h3.078a28.109,28.109,0,0,0,6.156,12.793,16.339,16.339,0,0,0,12.6,5.771q8.08,0,12.12-6.541a12.606,12.606,0,0,0,1.828-6.541q0-5.771-6.252-11.928-3.655-3.655-13.371-10.292-9.042-6.156-12.6-10.148t-3.559-11.3q0-10.292,7.6-16.449,7.118-5.675,17.6-5.675a44.028,44.028,0,0,1,15.775,3.174l.385,17.988h-3.367q-1.443-10.1-8.369-14.333a14.127,14.127,0,0,0-7.407-2.02,12.515,12.515,0,0,0-8.465,3.078,9.958,9.958,0,0,0-3.559,7.888q0,6.06,6.156,11.447,1.924,1.635,11.254,7.6T810.7-47.519A21.9,21.9,0,0,1,816.761-32.513ZM951.044-62.428H893.522a76.741,76.741,0,0,0-.77,8.272q0,20.2,15.294,29.819a26.875,26.875,0,0,0,14.717,4.425q14.14,0,25.01-12.793l2.116,2.4Q933.826-10,914.876-10q-20.008,0-29.723-19.912A45.168,45.168,0,0,1,880.536-50.4q0-23.567,17.892-36.168a34.057,34.057,0,0,1,20.2-6.06q16.641,0,23.182,9.427a124.285,124.285,0,0,0,9.234,16.256Zm-16.545-5.1q-2.02-12.986-10.677-18.661a16.092,16.092,0,0,0-8.753-2.693q-15.583,0-20.874,21.354ZM1132.558-106H1129q-2.693-16.353-7.7-20.008a11.269,11.269,0,0,0-6.637-1.828h-34.34v97.346q0,8.272,3.751,11.447,3.367,2.886,11.832,2.886h7.311v3.751h-62.043V-16.16h7.214q8.465,0,11.832-2.886,3.751-3.174,3.751-11.447v-97.346h-34.244q-7.31,0-10.87,7.7-1.731,3.751-3.559,14.14h-3.463l3.078-31.936h3.751q.481,2.982,6.156,2.982h94.749q5.579,0,6.06-2.982h3.751Zm86.188,43.575h-57.522a76.725,76.725,0,0,0-.77,8.272q0,20.2,15.294,29.819a26.875,26.875,0,0,0,14.717,4.425q14.14,0,25.01-12.793l2.116,2.4Q1201.527-10,1182.577-10q-20.008,0-29.723-19.912a45.168,45.168,0,0,1-4.617-20.489q0-23.567,17.892-36.168a34.057,34.057,0,0,1,20.2-6.06q16.641,0,23.182,9.427a124.285,124.285,0,0,0,9.234,16.256Zm-16.545-5.1q-2.02-12.986-10.677-18.661a16.092,16.092,0,0,0-8.753-2.693q-15.583,0-20.874,21.354Zm56.561-62.909a6.611,6.611,0,0,1-2.6,5.435,9.443,9.443,0,0,1-6.06,2.068,9.044,9.044,0,0,1-5.868-2.116,6.649,6.649,0,0,1-2.6-5.387,6.649,6.649,0,0,1,2.6-5.387,9.044,9.044,0,0,1,5.868-2.116,9.443,9.443,0,0,1,6.06,2.068A6.611,6.611,0,0,1,1258.761-130.436ZM1272.42-12.409h-43.767V-16.16q8.465,0,12.216-2.886,4.136-3.271,4.136-11.447V-70.124q0-7.118-2.212-8.369a15.857,15.857,0,0,0-3.944-1.25l-9.234-1.828v-3.174l25.587-8.85h2.982v66.18q0,11.254,14.236,11.254Zm99.173,0h-39.342v-3.944q7.31,0,9.042-1.828,1.635-1.828-2.02-6.445l-17.507-22.413-17.314,19.431q-2.5,2.886-2.5,5.194,0,6.06,12.5,6.06v3.944h-36.649v-3.944q7.118,0,11.351-2.4,3.463-1.828,8.753-7.792l21.066-23.663-19.046-25.01q-8.465-11.158-20.681-11.639V-90.42h39.727v3.559q-6.637,0-7.984,1.828-1.539,2.212,1.539,6.252l14.717,19.527,12.89-14.429q3.655-4.136,3.655-7.214,0-5.964-10.2-5.964V-90.42h38v3.559l-5.675.577q-9.715.962-19.334,11.639l-16.737,18.469,23.663,29.627a35.918,35.918,0,0,0,8.272,7.888q3.463,2.309,9.812,2.309Zm81.186-50.02h-57.522a76.725,76.725,0,0,0-.77,8.272q0,20.2,15.294,29.819a26.875,26.875,0,0,0,14.717,4.425q14.14,0,25.01-12.793l2.116,2.4Q1435.56-10,1416.611-10q-20.008,0-29.723-19.912a45.168,45.168,0,0,1-4.617-20.489q0-23.567,17.892-36.168a34.057,34.057,0,0,1,20.2-6.06q16.641,0,23.182,9.427a124.285,124.285,0,0,0,9.234,16.256Zm-16.545-5.1q-2.02-12.986-10.677-18.661a16.092,16.092,0,0,0-8.753-2.693q-15.583,0-20.874,21.354Zm56.561-62.909a6.611,6.611,0,0,1-2.6,5.435,9.443,9.443,0,0,1-6.06,2.068,9.044,9.044,0,0,1-5.868-2.116,6.649,6.649,0,0,1-2.6-5.387,6.649,6.649,0,0,1,2.6-5.387,9.044,9.044,0,0,1,5.868-2.116,9.443,9.443,0,0,1,6.06,2.068A6.611,6.611,0,0,1,1492.794-130.436Zm13.659,118.027h-43.767V-16.16q8.465,0,12.216-2.886,4.136-3.271,4.136-11.447V-70.124q0-7.118-2.212-8.369a15.857,15.857,0,0,0-3.944-1.25l-9.234-1.828v-3.174l25.587-8.85h2.982v66.18q0,11.254,14.236,11.254Zm71.374-74.26-4.713,11.832a40.23,40.23,0,0,1-10.389-3.174,18.336,18.336,0,0,0-6.926-1.924q-4.04,0-7.7,5.1a72.932,72.932,0,0,0-6.252,9.812v38.188q0,6.445,3.271,8.753,2.693,1.924,9.523,1.924h7.5v3.751H1515.4V-16.16q7.5-.1,10.485-3.751,2.693-3.271,2.693-11.062v-45.5L1515.4-81.186v-3.367l22.509-7.792h3.944l.385,20.874q5.579-9.138,5.964-9.715,4.425-6.733,7.118-8.657a9.827,9.827,0,0,1,5.579-1.539,19.786,19.786,0,0,1,6.733,1.731Zm74.933,65.795Q1639.39-10,1633.234-10q-8.273,0-9.042-12.024Q1609.475-10,1601.3-10q-7.984,0-12.89-4.04-5.387-4.329-5.387-12.12,0-10.389,10.773-15.294,3.655-1.635,15.1-5.291A72.322,72.322,0,0,0,1623.807-53V-68.584q0-8.657-3.367-12.6-4.81-5.675-11.062-5.675a14.04,14.04,0,0,0-7.984,2.693q-4.232,3.078-4.232,6.926a9.778,9.778,0,0,0,.962,3.751l-13.371,6.541a11.14,11.14,0,0,1-.577-2.79q0-4.329,6.252-10.677a54.723,54.723,0,0,1,10.1-8.08q6.83-4.136,12.793-4.136,13.178,0,20.681,10.485,2.982,4.136,2.982,16.93v26.453q0,16.737,2.116,18.373a4.358,4.358,0,0,0,2.982.866q4.521,0,9.619-4.329Zm-28.954-4.713V-49.058a100.137,100.137,0,0,1-11.639,5.483q-9.042,3.751-11.062,5.1a11.494,11.494,0,0,0-5.483,9.908,11.245,11.245,0,0,0,3.367,8.272,11.245,11.245,0,0,0,8.272,3.367Q1611.495-16.93,1623.807-25.587Z" transform="translate(-3 705)" fill="#373435"/><path d="M54.586-45.92q-.6,15.24-13.2,15.24-4.831,0-15.24-4.507t-14-4.507q-6.923,0-8.566,9.015H.7Q.847-37.5,3.885-41.437,7.321-45.92,13.9-45.92q3.984,0,14.742,4.532,11.106,4.682,14.692,4.682,7.521,0,8.367-9.214Z" transform="translate(611 623)" fill="#373435"/><path d="M-1611.338,370.153c-7.435-1.319-14.687-3.585-18.319-8.545-4.278-5.844-6.809-14.424,6.9-9.13a129.734,129.734,0,0,0,41.99,8.451c26,.812,49.974-6.767,58.849-24.4V230.455c-12.056,2.282-24.19,3.14-36.532,0v-9.41h144.632c6.48.266,6.66,7.009,4.472,10.273-2.231,3.328-13.276.9-16.96.514-7.8-.809-15.508-1.473-21.054.975v82.761c-37.34,37.1-81.314,57.58-130.7,57.583A190.2,190.2,0,0,1-1611.338,370.153Zm324.9.154-74.646-197.02-.378-162.167h-58.964V0h250.38V81.693h-10.681c-.864-34.809-18.221-59.715-58.964-70.573h-43.582l.378,359.769Zm-395.12-160.524c-1.049.149-2.1.3-2.4-.459-16.344-41.038-29.7-85.714-46.041-126.752C-1688.52,22.958-1628.986-.181-1578.747,0c33.646.122,66.761,10.208,100.409,31.244v12.19c-32.218-24.573-78.846-33.772-110.235-31.92-41.528,2.449-80.956,28.519-90.581,86.668v112.06C-1679.457,209.483-1680.508,209.633-1681.558,209.783Z" transform="translate(2280.226 7)" fill="#284b8c"/></g></svg>