<svg xmlns="http://www.w3.org/2000/svg" xmlns:xlink="http://www.w3.org/1999/xlink" width="561" height="561" viewBox="0 0 561 561">
  <defs>
    <clipPath id="clip-simbolo">
      <rect width="561" height="561"/>
    </clipPath>
  </defs>
  <g id="simbolo" clip-path="url(#clip-simbolo)">
    <g id="logotipo" transform="translate(-549.227 87)">
      <g id="divisores">
        <path id="apostrofo" d="M298.738,319.348V396.98h7.316V319.348Z" transform="translate(536.048 -312.348)" fill="#a9abae" fill-rule="evenodd"/>
      </g>
      <path id="GT" d="M-1611.338,370.153c-7.435-1.319-14.687-3.585-18.319-8.545-4.278-5.844-6.809-14.424,6.9-9.13a129.734,129.734,0,0,0,41.99,8.451c26,.812,49.974-6.767,58.849-24.4V230.455c-12.056,2.282-24.19,3.14-36.532,0v-9.41h144.632c6.48.266,6.66,7.009,4.472,10.273-2.231,3.328-13.276.9-16.96.514-7.8-.809-15.508-1.473-21.054.975v82.761c-37.34,37.1-81.314,57.58-130.7,57.583A190.2,190.2,0,0,1-1611.338,370.153Zm324.9.154-74.646-197.02-.378-162.167h-58.964V0h250.38V81.693h-10.681c-.864-34.809-18.221-59.715-58.964-70.573h-43.582l.378,359.769Zm-395.12-160.524c-1.049.149-2.1.3-2.4-.459-16.344-41.038-29.7-85.714-46.041-126.752C-1688.52,22.958-1628.986-.181-1578.747,0c33.646.122,66.761,10.208,100.409,31.244v12.19c-32.218-24.573-78.846-33.772-110.235-31.92-41.528,2.449-80.956,28.519-90.581,86.668v112.06C-1679.457,209.483-1680.508,209.633-1681.558,209.783Z" transform="translate(2280.226 7)" fill="#284b8c"/>
    </g>
  </g>
</svg>
